<svg width="515" height="98" viewBox="0 0 515 98" fill="none" xmlns="http://www.w3.org/2000/svg">
<path d="M72 49C72 76.062 50.0856 98 23.0529 98C-3.97988 98 0.238691 76.062 0.238691 49C0.238691 21.938 -3.97988 0 23.0529 0C50.0856 0 72 21.938 72 49Z" fill="#F4514D"/>
<path d="M32.7777 36.872C40.6478 36.872 51.8668 39.7187 53.3739 40.8908C54.8809 42.0629 54.2111 43.57 53.8762 44.2398C53.5413 44.9096 36.2941 74.7154 35.2895 75.8875C34.2848 77.0596 31.773 77.0596 30.7684 75.8875C29.7637 74.7154 12.8516 44.7421 12.6839 44.2398C12.5163 43.7374 12.3489 41.5606 13.5212 40.8908C14.6934 40.221 24.9077 36.872 32.7777 36.872Z" fill="white"/>
<circle cx="39.6425" cy="43.2351" r="2.84662" fill="url(#paint0_linear)"/>
<circle cx="32.9443" cy="50.6028" r="2.51172" fill="url(#paint1_linear)"/>
<circle cx="24.74" cy="48.426" r="1.33959" fill="url(#paint2_linear)"/>
<circle cx="26.7864" cy="59.2475" r="1.17214" fill="url(#paint3_linear)"/>
<circle cx="33.2795" cy="69.6919" r="1.50704" fill="url(#paint4_linear)"/>
<circle cx="43.1589" cy="52.7797" r="1.33959" fill="url(#paint5_linear)"/>
<circle cx="36.5166" cy="59.633" r="1.55761" fill="url(#paint6_linear)"/>
<path d="M9.83724 33.858C9 34.3604 9 35.3651 9 35.5325C9 35.6999 10.3396 38.3791 10.6745 38.714C11.0094 39.0489 11.6792 39.2163 12.5164 39.2163C13.3537 39.2164 21.5586 35.0301 33.28 35.0301C45.0014 35.0301 53.3738 39.0489 54.0436 39.2163C54.7134 39.3838 55.7181 39.0489 56.053 38.714C56.3879 38.3791 57.2251 36.2023 57.3926 35.6999C57.56 35.1976 57.3926 34.1929 56.5553 33.6905C55.7181 33.1882 45.3864 29.1081 33.9498 29.002C22.1644 28.8926 10.6745 33.3556 9.83724 33.858Z" fill="white"/>
<path d="M91.9375 25.5625H111.031C116.406 25.5625 121.062 26.0729 125 27.0938C128.938 28.0938 132.198 29.5729 134.781 31.5312C137.365 33.4896 139.281 35.8958 140.531 38.75C141.781 41.6042 142.406 44.875 142.406 48.5625C142.406 51.8542 141.781 54.9271 140.531 57.7812C139.281 60.6146 137.365 63.0938 134.781 65.2188C132.198 67.3229 128.938 68.9792 125 70.1875C121.062 71.3958 116.406 72 111.031 72H91.9375V25.5625ZM110 65.1875C112.083 65.1875 113.958 64.8646 115.625 64.2188C117.292 63.5729 118.698 62.5729 119.844 61.2188C121.01 59.8646 121.896 58.1458 122.5 56.0625C123.125 53.9583 123.438 51.4479 123.438 48.5312C123.438 45.6354 123.125 43.1667 122.5 41.125C121.875 39.0833 120.979 37.4167 119.812 36.125C118.646 34.8125 117.229 33.8646 115.562 33.2812C113.917 32.6771 112.073 32.375 110.031 32.375L110 65.1875ZM147.969 62.25C147.969 60.75 148.302 59.3542 148.969 58.0625C149.635 56.7708 150.594 55.6458 151.844 54.6875C153.094 53.7292 154.604 52.9792 156.375 52.4375C158.146 51.875 160.125 51.5938 162.312 51.5938C164.5 51.5938 166.542 51.8542 168.438 52.375C170.354 52.875 171.958 53.5208 173.25 54.3125V54.0625C173.25 52.6042 173.083 51.3646 172.75 50.3438C172.438 49.3229 171.948 48.4896 171.281 47.8438C170.615 47.1979 169.76 46.7292 168.719 46.4375C167.698 46.1458 166.49 46 165.094 46C163.823 46 162.51 46.1146 161.156 46.3438C159.802 46.5521 158.552 46.8646 157.406 47.2812L155.125 43.0625C157.396 42.125 159.74 41.4583 162.156 41.0625C164.594 40.6458 167.104 40.4375 169.688 40.4375C173 40.4375 175.927 40.7604 178.469 41.4062C181.031 42.0312 183.177 42.9792 184.906 44.25C186.656 45.5 187.979 47.0833 188.875 49C189.771 50.8958 190.219 53.125 190.219 55.6875V72H174.375L173.312 69C172.688 69.4792 171.948 69.9375 171.094 70.375C170.24 70.8125 169.302 71.1979 168.281 71.5312C167.26 71.8646 166.177 72.125 165.031 72.3125C163.885 72.5 162.688 72.5938 161.438 72.5938C159.396 72.5938 157.542 72.3333 155.875 71.8125C154.229 71.2708 152.823 70.5417 151.656 69.625C150.49 68.7083 149.583 67.625 148.938 66.375C148.292 65.1042 147.969 63.7292 147.969 62.25ZM165.469 61.5938C165.469 62.7188 165.833 63.6354 166.562 64.3438C167.292 65.0312 168.271 65.375 169.5 65.375C170.167 65.375 170.823 65.2708 171.469 65.0625C172.115 64.8333 172.708 64.5 173.25 64.0625V58.7812C172.208 58.1562 171.062 57.8438 169.812 57.8438C168.396 57.8438 167.312 58.1979 166.562 58.9062C165.833 59.5938 165.469 60.4896 165.469 61.5938ZM200.25 25.5625H219.344C224.719 25.5625 229.375 26.0729 233.312 27.0938C237.25 28.0938 240.51 29.5729 243.094 31.5312C245.677 33.4896 247.594 35.8958 248.844 38.75C250.094 41.6042 250.719 44.875 250.719 48.5625C250.719 51.8542 250.094 54.9271 248.844 57.7812C247.594 60.6146 245.677 63.0938 243.094 65.2188C240.51 67.3229 237.25 68.9792 233.312 70.1875C229.375 71.3958 224.719 72 219.344 72H200.25V25.5625ZM218.312 65.1875C220.396 65.1875 222.271 64.8646 223.938 64.2188C225.604 63.5729 227.01 62.5729 228.156 61.2188C229.323 59.8646 230.208 58.1458 230.812 56.0625C231.438 53.9583 231.75 51.4479 231.75 48.5312C231.75 45.6354 231.438 43.1667 230.812 41.125C230.188 39.0833 229.292 37.4167 228.125 36.125C226.958 34.8125 225.542 33.8646 223.875 33.2812C222.229 32.6771 220.385 32.375 218.344 32.375L218.312 65.1875ZM256.281 62.25C256.281 60.75 256.615 59.3542 257.281 58.0625C257.948 56.7708 258.906 55.6458 260.156 54.6875C261.406 53.7292 262.917 52.9792 264.688 52.4375C266.458 51.875 268.438 51.5938 270.625 51.5938C272.812 51.5938 274.854 51.8542 276.75 52.375C278.667 52.875 280.271 53.5208 281.562 54.3125V54.0625C281.562 52.6042 281.396 51.3646 281.062 50.3438C280.75 49.3229 280.26 48.4896 279.594 47.8438C278.927 47.1979 278.073 46.7292 277.031 46.4375C276.01 46.1458 274.802 46 273.406 46C272.135 46 270.823 46.1146 269.469 46.3438C268.115 46.5521 266.865 46.8646 265.719 47.2812L263.438 43.0625C265.708 42.125 268.052 41.4583 270.469 41.0625C272.906 40.6458 275.417 40.4375 278 40.4375C281.312 40.4375 284.24 40.7604 286.781 41.4062C289.344 42.0312 291.49 42.9792 293.219 44.25C294.969 45.5 296.292 47.0833 297.188 49C298.083 50.8958 298.531 53.125 298.531 55.6875V72H282.688L281.625 69C281 69.4792 280.26 69.9375 279.406 70.375C278.552 70.8125 277.615 71.1979 276.594 71.5312C275.573 71.8646 274.49 72.125 273.344 72.3125C272.198 72.5 271 72.5938 269.75 72.5938C267.708 72.5938 265.854 72.3333 264.188 71.8125C262.542 71.2708 261.135 70.5417 259.969 69.625C258.802 68.7083 257.896 67.625 257.25 66.375C256.604 65.1042 256.281 63.7292 256.281 62.25ZM273.781 61.5938C273.781 62.7188 274.146 63.6354 274.875 64.3438C275.604 65.0312 276.583 65.375 277.812 65.375C278.479 65.375 279.135 65.2708 279.781 65.0625C280.427 64.8333 281.021 64.5 281.562 64.0625V58.7812C280.521 58.1562 279.375 57.8438 278.125 57.8438C276.708 57.8438 275.625 58.1979 274.875 58.9062C274.146 59.5938 273.781 60.4896 273.781 61.5938ZM308.562 25.5625H330.906C335.031 25.5417 338.583 25.9062 341.562 26.6562C344.562 27.3854 347.031 28.4375 348.969 29.8125C350.906 31.1875 352.333 32.8438 353.25 34.7812C354.188 36.6979 354.656 38.8333 354.656 41.1875C354.656 43.25 354.219 45.2292 353.344 47.125C352.49 49 351.156 50.6562 349.344 52.0938C347.552 53.5312 345.26 54.6771 342.469 55.5312C339.698 56.3854 336.396 56.8125 332.562 56.8125H326.625V72H308.562V25.5625ZM326.625 50C328.062 49.9792 329.344 49.7604 330.469 49.3438C331.594 48.9062 332.542 48.3125 333.312 47.5625C334.083 46.7917 334.667 45.875 335.062 44.8125C335.479 43.7292 335.688 42.5208 335.688 41.1875C335.688 39.875 335.479 38.6875 335.062 37.625C334.646 36.5625 334.042 35.6562 333.25 34.9062C332.479 34.1354 331.531 33.5312 330.406 33.0938C329.302 32.6562 328.042 32.4167 326.625 32.375V50ZM369.031 35.875C367.49 35.875 366.156 35.7083 365.031 35.375C363.927 35.0417 363.021 34.5833 362.312 34C361.604 33.3958 361.083 32.7083 360.75 31.9375C360.417 31.1458 360.25 30.2917 360.25 29.375C360.25 28.4792 360.417 27.6354 360.75 26.8438C361.083 26.0521 361.604 25.3646 362.312 24.7812C363.021 24.1771 363.927 23.7083 365.031 23.375C366.156 23.0417 367.49 22.875 369.031 22.875C370.594 22.875 371.927 23.0417 373.031 23.375C374.135 23.7083 375.042 24.1771 375.75 24.7812C376.479 25.3646 377.01 26.0521 377.344 26.8438C377.677 27.6354 377.844 28.4792 377.844 29.375C377.844 30.2917 377.677 31.1458 377.344 31.9375C377.01 32.7083 376.479 33.3958 375.75 34C375.042 34.5833 374.135 35.0417 373.031 35.375C371.927 35.7083 370.594 35.875 369.031 35.875ZM360.562 41.0312H377.531V72H360.562V41.0312ZM400.438 46.1562H386.438V41.0312H421.469L406.344 66.875H420.25V72.0312H384.125L400.438 46.1562ZM442.188 46.1562H428.188V41.0312H463.219L448.094 66.875H462V72.0312H425.875L442.188 46.1562ZM467.781 62.25C467.781 60.75 468.115 59.3542 468.781 58.0625C469.448 56.7708 470.406 55.6458 471.656 54.6875C472.906 53.7292 474.417 52.9792 476.188 52.4375C477.958 51.875 479.938 51.5938 482.125 51.5938C484.312 51.5938 486.354 51.8542 488.25 52.375C490.167 52.875 491.771 53.5208 493.062 54.3125V54.0625C493.062 52.6042 492.896 51.3646 492.562 50.3438C492.25 49.3229 491.76 48.4896 491.094 47.8438C490.427 47.1979 489.573 46.7292 488.531 46.4375C487.51 46.1458 486.302 46 484.906 46C483.635 46 482.323 46.1146 480.969 46.3438C479.615 46.5521 478.365 46.8646 477.219 47.2812L474.938 43.0625C477.208 42.125 479.552 41.4583 481.969 41.0625C484.406 40.6458 486.917 40.4375 489.5 40.4375C492.812 40.4375 495.74 40.7604 498.281 41.4062C500.844 42.0312 502.99 42.9792 504.719 44.25C506.469 45.5 507.792 47.0833 508.688 49C509.583 50.8958 510.031 53.125 510.031 55.6875V72H494.188L493.125 69C492.5 69.4792 491.76 69.9375 490.906 70.375C490.052 70.8125 489.115 71.1979 488.094 71.5312C487.073 71.8646 485.99 72.125 484.844 72.3125C483.698 72.5 482.5 72.5938 481.25 72.5938C479.208 72.5938 477.354 72.3333 475.688 71.8125C474.042 71.2708 472.635 70.5417 471.469 69.625C470.302 68.7083 469.396 67.625 468.75 66.375C468.104 65.1042 467.781 63.7292 467.781 62.25ZM485.281 61.5938C485.281 62.7188 485.646 63.6354 486.375 64.3438C487.104 65.0312 488.083 65.375 489.312 65.375C489.979 65.375 490.635 65.2708 491.281 65.0625C491.927 64.8333 492.521 64.5 493.062 64.0625V58.7812C492.021 58.1562 490.875 57.8438 489.625 57.8438C488.208 57.8438 487.125 58.1979 486.375 58.9062C485.646 59.5938 485.281 60.4896 485.281 61.5938Z" fill="#F4514D"/>
<defs>
<linearGradient id="paint0_linear" x1="39.6425" y1="40.3885" x2="39.6425" y2="46.0817" gradientUnits="userSpaceOnUse">
<stop stop-color="#FF5858"/>
<stop offset="1" stop-color="#DF4337"/>
</linearGradient>
<linearGradient id="paint1_linear" x1="32.9443" y1="48.0911" x2="32.9443" y2="53.1145" gradientUnits="userSpaceOnUse">
<stop stop-color="#FF5858"/>
<stop offset="1" stop-color="#DF4337"/>
</linearGradient>
<linearGradient id="paint2_linear" x1="24.74" y1="47.0864" x2="24.74" y2="49.7656" gradientUnits="userSpaceOnUse">
<stop stop-color="#FF5858"/>
<stop offset="1" stop-color="#DF4337"/>
</linearGradient>
<linearGradient id="paint3_linear" x1="26.7864" y1="58.0754" x2="26.7864" y2="60.4197" gradientUnits="userSpaceOnUse">
<stop stop-color="#FF5858"/>
<stop offset="1" stop-color="#DF4337"/>
</linearGradient>
<linearGradient id="paint4_linear" x1="33.2795" y1="68.1849" x2="33.2795" y2="71.199" gradientUnits="userSpaceOnUse">
<stop stop-color="#FF5858"/>
<stop offset="1" stop-color="#DF4337"/>
</linearGradient>
<linearGradient id="paint5_linear" x1="43.1589" y1="51.4401" x2="43.1589" y2="54.1193" gradientUnits="userSpaceOnUse">
<stop stop-color="#FF5858"/>
<stop offset="1" stop-color="#DF4337"/>
</linearGradient>
<linearGradient id="paint6_linear" x1="36.5166" y1="58.0754" x2="36.5166" y2="61.1906" gradientUnits="userSpaceOnUse">
<stop stop-color="#FF5858"/>
<stop offset="1" stop-color="#DF4337"/>
</linearGradient>
</defs>
</svg>
