<svg width="283" height="284" viewBox="0 0 283 284" fill="none" xmlns="http://www.w3.org/2000/svg">
<path d="M57.3487 188.784C85.3675 222.269 119.096 248.632 157.592 267.287C172.249 274.231 191.851 282.47 213.689 283.882C215.043 283.941 216.338 284 217.691 284C232.348 284 244.121 278.939 253.716 268.523C253.774 268.464 253.892 268.346 253.951 268.229C257.365 264.109 261.25 260.402 265.312 256.459C268.078 253.811 270.904 251.045 273.611 248.22C286.149 235.156 286.149 218.561 273.494 205.909L238.117 170.541C232.113 164.303 224.932 161.008 217.397 161.008C209.863 161.008 202.623 164.303 196.442 170.482L175.369 191.55C173.426 190.432 171.425 189.431 169.542 188.49C167.187 187.313 165.009 186.195 163.067 184.959C143.877 172.777 126.454 156.889 109.796 136.468C101.378 125.817 95.7273 116.872 91.7835 107.751C97.3167 102.748 102.497 97.511 107.5 92.3912C109.266 90.5669 111.091 88.7426 112.915 86.9184C119.273 80.5628 122.687 73.2068 122.687 65.7331C122.687 58.2594 119.331 50.9034 112.915 44.5479L95.3742 27.0112C93.314 24.9515 91.3715 22.9507 89.3701 20.891C85.4852 16.8893 81.4236 12.77 77.421 9.06258C71.3581 3.11894 64.2356 0 56.7012 0C49.2256 0 42.0443 3.11894 35.746 9.12143L13.7312 31.1305C5.72583 39.1339 1.19338 48.8438 0.251575 60.0837C-0.866821 74.1484 1.72315 89.0957 8.43353 107.162C18.7346 135.115 34.2744 161.067 57.3487 188.784ZM14.6141 61.3195C15.3205 53.4927 18.3225 46.9606 23.9734 41.3112L45.8704 19.4198C49.2844 16.1243 53.0517 14.4177 56.7012 14.4177C60.2918 14.4177 63.9413 16.1243 67.2965 19.5375C71.2403 23.1861 74.9487 27.0112 78.9514 31.0717C80.9527 33.1314 83.0129 35.191 85.0731 37.3096L102.614 54.8462C106.264 58.4948 108.147 62.2022 108.147 65.8508C108.147 69.4994 106.264 73.2068 102.614 76.8554C100.79 78.6797 98.9648 80.5628 97.1401 82.3871C91.6658 87.9188 86.5447 93.1562 80.8939 98.1583C80.7762 98.276 80.7173 98.3348 80.5996 98.4525C75.7139 103.337 76.4792 107.986 77.6564 111.517C77.7153 111.693 77.7741 111.811 77.833 111.988C82.3655 122.874 88.6638 133.232 98.4939 145.59C116.153 167.363 134.754 184.253 155.238 197.258C157.769 198.906 160.477 200.201 163.008 201.495C165.362 202.672 167.54 203.79 169.483 205.026C169.718 205.144 169.895 205.261 170.13 205.379C172.073 206.38 173.956 206.85 175.84 206.85C180.549 206.85 183.61 203.849 184.61 202.849L206.625 180.84C210.039 177.426 213.748 175.602 217.397 175.602C221.871 175.602 225.52 178.368 227.816 180.84L263.31 216.266C270.374 223.328 270.315 230.978 263.134 238.452C260.661 241.1 258.071 243.63 255.305 246.278C251.184 250.28 246.888 254.399 243.003 259.048C236.233 266.346 228.169 269.759 217.75 269.759C216.75 269.759 215.69 269.7 214.689 269.641C195.382 268.405 177.429 260.873 163.95 254.458C127.337 236.745 95.1976 211.617 68.5326 179.721C46.5767 153.299 31.8021 128.7 22.0309 102.337C15.968 86.1533 13.6723 73.1479 14.6141 61.3195Z" fill="#EB4845"/>
</svg>
