<svg width="512" height="385" viewBox="0 0 512 385" fill="none" xmlns="http://www.w3.org/2000/svg">
<path d="M38.8721 85.681H117.97C122.112 85.681 125.47 82.324 125.47 78.181C125.47 74.038 122.112 70.681 117.97 70.681H38.8721C34.7301 70.681 31.3721 74.038 31.3721 78.181C31.3721 82.324 34.7291 85.681 38.8721 85.681Z" fill="#F4514D"/>
<path d="M115.258 121.788H84.0122C79.8702 121.788 76.5122 125.145 76.5122 129.288C76.5122 133.431 79.8702 136.788 84.0122 136.788H115.258C119.4 136.788 122.758 133.431 122.758 129.288C122.758 125.145 119.4 121.788 115.258 121.788Z" fill="#F4514D"/>
<path d="M7.5 173.798H84.012C88.154 173.798 91.512 170.441 91.512 166.298C91.512 162.155 88.154 158.798 84.012 158.798H7.5C3.358 158.798 0 162.155 0 166.298C0 170.441 3.358 173.798 7.5 173.798Z" fill="#F4514D"/>
<path d="M125.47 306.76C125.47 302.617 122.112 299.26 117.97 299.26H38.8721C34.7301 299.26 31.3721 302.617 31.3721 306.76C31.3721 310.903 34.7301 314.26 38.8721 314.26H117.97C122.112 314.26 125.47 310.903 125.47 306.76Z" fill="#F4514D"/>
<path d="M115.258 248.154H84.0122C79.8702 248.154 76.5122 251.511 76.5122 255.654C76.5122 259.797 79.8702 263.154 84.0122 263.154H115.258C119.4 263.154 122.758 259.797 122.758 255.654C122.758 251.511 119.4 248.154 115.258 248.154Z" fill="#F4514D"/>
<path d="M91.512 218.644C91.512 214.501 88.154 211.144 84.012 211.144H7.5C3.358 211.144 0 214.501 0 218.644C0 222.787 3.358 226.144 7.5 226.144H84.012C88.154 226.144 91.512 222.787 91.512 218.644Z" fill="#F4514D"/>
<path d="M319.529 102.301C323.672 102.301 327.029 98.944 327.029 94.801V83.353C327.029 79.21 323.672 75.853 319.529 75.853C315.386 75.853 312.029 79.21 312.029 83.353V94.801C312.029 98.944 315.386 102.301 319.529 102.301Z" fill="#F4514D"/>
<path d="M401.99 110.009C399.06 107.081 394.312 107.081 391.383 110.009L383.288 118.104C380.359 121.034 380.359 125.782 383.288 128.711C386.219 131.64 390.966 131.639 393.895 128.711L401.99 120.616C404.918 117.687 404.918 112.939 401.99 110.009Z" fill="#F4514D"/>
<path d="M417.199 184.971C413.056 184.971 409.699 188.328 409.699 192.471C409.699 196.614 413.056 199.971 417.199 199.971H428.646C432.789 199.971 436.146 196.614 436.146 192.471C436.146 188.328 432.789 184.971 428.646 184.971H417.199Z" fill="#F4514D"/>
<path d="M393.895 256.23C390.965 253.302 386.217 253.302 383.288 256.23C380.359 259.16 380.359 263.908 383.288 266.837L391.383 274.932C394.314 277.861 399.061 277.86 401.99 274.932C404.919 272.002 404.919 267.254 401.99 264.325L393.895 256.23Z" fill="#F4514D"/>
<path d="M312.029 290.141V301.588C312.029 305.731 315.386 309.088 319.529 309.088C323.672 309.088 327.029 305.731 327.029 301.588V290.141C327.029 285.998 323.672 282.641 319.529 282.641C315.386 282.641 312.029 285.999 312.029 290.141Z" fill="#F4514D"/>
<path d="M245.162 256.23L237.067 264.325C234.138 267.255 234.138 272.003 237.067 274.932C239.997 277.861 244.745 277.86 247.673 274.932L255.768 266.837C258.697 263.907 258.697 259.159 255.768 256.23C252.84 253.302 248.091 253.302 245.162 256.23Z" fill="#F4514D"/>
<path d="M210.411 184.971C206.269 184.971 202.911 188.328 202.911 192.471C202.911 196.614 206.269 199.971 210.411 199.971H221.859C226.001 199.971 229.359 196.614 229.359 192.471C229.359 188.328 226.001 184.971 221.859 184.971H210.411Z" fill="#F4514D"/>
<path d="M255.769 118.104L247.674 110.009C244.745 107.081 239.996 107.081 237.068 110.009C234.139 112.939 234.139 117.687 237.068 120.616L245.163 128.711C248.093 131.64 252.841 131.639 255.769 128.711C258.698 125.782 258.698 121.034 255.769 118.104Z" fill="#F4514D"/>
<path d="M359.859 192.471C359.859 188.328 356.502 184.971 352.359 184.971H327.029V129.287C327.029 125.144 323.672 121.787 319.529 121.787C315.386 121.787 312.029 125.144 312.029 129.287V192.471C312.029 196.614 315.386 199.971 319.529 199.971H352.359C356.501 199.971 359.859 196.614 359.859 192.471Z" fill="#F4514D"/>
<path d="M461.741 191.233C465.876 190.982 469.024 187.427 468.773 183.293C464.002 104.59 398.446 42.939 319.528 42.939C237.076 42.939 169.996 110.019 169.996 192.472C169.996 274.924 237.076 342.004 319.528 342.004C393.397 342.004 456.428 287.882 467.393 214.847C468.008 210.751 465.186 206.932 461.089 206.317C457.003 205.704 453.174 208.523 452.559 212.621C442.709 278.235 386.053 327.005 319.528 327.005C245.347 327.005 184.996 266.654 184.996 192.473C184.996 118.292 245.347 57.94 319.528 57.94C390.529 57.94 449.508 113.401 453.8 184.203C454.05 188.335 457.602 191.473 461.741 191.233V191.233Z" fill="#F4514D"/>
<path d="M319.528 0C293.147 0 267.3 5.473 243.51 15.708H111.181C107.039 15.708 103.681 19.065 103.681 23.208C103.681 27.351 107.039 30.708 111.181 30.708H215.294C201.217 39.768 188.258 50.696 176.832 63.312C174.052 66.381 174.286 71.124 177.356 73.905C180.427 76.686 185.168 76.451 187.95 73.381C221.552 36.279 269.511 15 319.528 15C417.386 15 497 94.613 497 192.471C497 290.328 417.387 369.942 319.528 369.942C221.67 369.942 142.057 290.329 142.057 192.471C142.057 158.203 151.846 124.943 170.364 96.285C172.612 92.806 171.614 88.164 168.135 85.916C164.656 83.669 160.014 84.665 157.765 88.145C137.675 119.233 127.057 155.308 127.057 192.471C127.057 260.237 162.263 319.929 215.342 354.234H111.182C107.04 354.234 103.682 357.591 103.682 361.734C103.682 365.877 107.04 369.234 111.182 369.234H243.407C266.767 379.333 292.504 384.942 319.529 384.942C425.657 384.942 512 298.6 512 192.471C512 86.342 425.657 0 319.528 0V0Z" fill="#F4514D"/>
</svg>
